
<svg width="184px" height="53px" viewBox="0 0 184 53" version="1.1" xmlns="http://www.w3.org/2000/svg" xmlns:xlink="http://www.w3.org/1999/xlink">
    <!-- Generator: Sketch 47.1 (45422) - http://www.bohemiancoding.com/sketch -->
    <desc>Created with Sketch.</desc>
    <defs></defs>
    <g id="Page-1" stroke="none" stroke-width="1" fill="none" fill-rule="evenodd">
        <g id="Azure-lockup-hi-res" transform="translate(-15.000000, -169.000000)" fill="#2B67A3">
            <path d="M113.265,195.538 L108.67,183.08 C108.561,182.781 108.405,182.12 108.201,181.099 L108.119,181.099 C107.996,181.957 107.847,182.617 107.67,183.08 L103.115,195.538 L113.265,195.538 Z M121.292,206.832 L117.493,206.832 L114.409,198.643 L101.972,198.643 L99.051,206.832 L95.252,206.832 L106.444,177.546 L109.998,177.546 L121.292,206.832 L121.292,206.832 Z" id="Fill-10"></path>
            <polyline id="Fill-11" points="139.754 186.879 127.357 203.993 139.611 203.993 139.611 206.832 122.435 206.832 122.435 205.791 134.812 188.758 123.599 188.758 123.599 185.919 139.754 185.919 139.754 186.879"></polyline>
            <path d="M160.953,206.832 L157.604,206.832 L157.604,203.524 L157.522,203.524 C156.134,206.07 153.989,207.343 151.089,207.343 C146.092,207.343 143.594,204.368 143.594,198.418 L143.594,185.919 L146.943,185.919 L146.943,197.887 C146.943,202.285 148.631,204.484 152.008,204.484 C153.669,204.484 155.017,203.881 156.052,202.676 C157.086,201.471 157.604,199.902 157.604,197.969 L157.604,185.919 L160.953,185.919 L160.953,206.832" id="Fill-12"></path>
            <path d="M178.64,189.309 C178.04,188.86 177.19,188.636 176.087,188.636 C174.603,188.636 173.398,189.333 172.472,190.729 C171.546,192.124 171.083,193.939 171.083,196.172 L171.083,206.832 L167.734,206.832 L167.734,185.919 L171.083,185.919 L171.083,190.228 L171.165,190.228 C171.628,188.785 172.343,187.645 173.309,186.807 C174.276,185.97 175.386,185.552 176.639,185.552 C177.51,185.552 178.177,185.647 178.64,185.837 L178.64,189.309" id="Fill-13"></path>
            <path d="M195.509,194.374 C195.482,192.441 195.015,190.94 194.11,189.871 C193.204,188.802 191.928,188.268 190.281,188.268 C188.729,188.268 187.401,188.826 186.298,189.943 C185.196,191.059 184.501,192.536 184.215,194.374 L195.509,194.374 Z M198.94,197.213 L184.174,197.213 C184.228,199.569 184.851,201.369 186.043,202.615 C187.234,203.861 188.885,204.484 190.995,204.484 C193.365,204.484 195.522,203.721 197.47,202.196 L197.47,205.321 C195.645,206.669 193.222,207.343 190.199,207.343 C187.217,207.343 184.889,206.38 183.214,204.453 C181.54,202.527 180.702,199.861 180.702,196.457 C180.702,194.388 181.121,192.499 181.958,190.79 C182.796,189.081 183.95,187.757 185.42,186.818 C186.89,185.878 188.524,185.409 190.322,185.409 C193.031,185.409 195.145,186.29 196.663,188.054 C198.181,189.817 198.94,192.284 198.94,195.457 L198.94,197.213 L198.94,197.213 Z" id="Fill-14"></path>
            <polyline id="Fill-15" points="29.852 221.143 80.011 221.148 52.995 174.325 44.767 196.931 60.566 215.727 29.852 221.143"></polyline>
            <polyline id="Fill-16" points="50.841 169.765 31.535 185.965 15 214.604 29.912 214.604 29.912 214.648 50.841 169.765"></polyline>
        </g>
    </g>
</svg>
