<?xml version="1.0" encoding="UTF-8" standalone="no"?>
<!-- Generator: Adobe Illustrator 17.0.2, SVG Export Plug-In . SVG Version: 6.00 Build 0)  -->
<!DOCTYPE svg  PUBLIC '-//W3C//DTD SVG 1.1//EN'  'http://www.w3.org/Graphics/SVG/1.1/DTD/svg11.dtd'>
<svg id="Layer_1" xmlns="http://www.w3.org/2000/svg" xml:space="preserve" height="32px" viewBox="0 0 32 32" width="32px" version="1.1" y="0px" x="0px" xmlns:xlink="http://www.w3.org/1999/xlink" enable-background="new 0 0 32 32">
<g id="Comp">
	<path id="rect1227_1_" d="m3 1c-1.108 0-2 0.892-2 2v7h6v-2c0-0.554 0.445-1 1-1h16c0.553 0 1 0.446 1 1v2h6v-7c0-1.108-0.892-2-2-2h-26zm-2 11v8h6v-8h-6zm24 0v8h6v-8h-6zm-24 10v7c0 1.107 0.892 2 2 2h26c1.107 0 2-0.892 2-2v-7h-6v1.999c0 0.554-0.447 1-1 1h-16c-0.555 0-1-0.446-1-1v-1.999h-6z" fill="#fff"/>
</g>
<g id="Grid" display="none">
</g>
</svg>
