<?xml version="1.0" encoding="UTF-8" standalone="no"?>
<!-- Generator: Adobe Illustrator 17.0.2, SVG Export Plug-In . SVG Version: 6.00 Build 0)  -->
<!DOCTYPE svg  PUBLIC '-//W3C//DTD SVG 1.1//EN'  'http://www.w3.org/Graphics/SVG/1.1/DTD/svg11.dtd'>
<svg id="Layer_1" xmlns="http://www.w3.org/2000/svg" xml:space="preserve" height="32px" viewBox="0 0 32 32" width="32px" version="1.1" y="0px" x="0px" xmlns:xlink="http://www.w3.org/1999/xlink" enable-background="new 0 0 32 32">
<g id="Comp">
	<path id="rect5431" d="m19.72 0l-7.44 1.488v3.195c-1.668 0.531-3.23 1.413-4.555 2.619l-3.4-1.966-3.72 6.443 3.407 1.969c-0.379 1.748-0.365 3.537 0.01 5.245l-3.417 1.973 3.72 6.44 3.403-1.966c0.64 0.585 1.352 1.112 2.131 1.562 0.781 0.451 1.592 0.805 2.42 1.067v3.931h7.44v-3.949c1.666-0.53 3.224-1.413 4.548-2.616l3.407 1.969 3.72-6.44-3.41-1.969c0.38-1.747 0.37-3.537-0.003-5.245l3.413-1.973-3.72-6.443-3.397 1.966c-0.642-0.588-1.355-1.117-2.138-1.569-0.781-0.451-1.592-0.805-2.42-1.067l0.001-4.664zm-3.878 10.331c1.068-0.02 2.162 0.244 3.168 0.825 2.927 1.69 3.901 5.353 2.235 8.237-1.665 2.884-5.327 3.875-8.254 2.185s-3.901-5.353-2.235-8.237c1.092-1.893 3.046-2.971 5.086-3.01z" fill="#fff"/>
</g>
<g id="Grid" display="none">
</g>
</svg>
