<?xml version="1.0" encoding="UTF-8" standalone="no"?>
<!-- Generator: Adobe Illustrator 17.0.2, SVG Export Plug-In . SVG Version: 6.00 Build 0)  -->
<!DOCTYPE svg  PUBLIC '-//W3C//DTD SVG 1.1//EN'  'http://www.w3.org/Graphics/SVG/1.1/DTD/svg11.dtd'>
<svg id="Layer_1" xmlns="http://www.w3.org/2000/svg" xml:space="preserve" height="32px" viewBox="0 0 32 32" width="32px" version="1.1" y="0px" x="0px" xmlns:xlink="http://www.w3.org/1999/xlink" enable-background="new 0 0 32 32">
<g id="Comp">
		<path d="m16 2c-7.714 0-14 6.286-14 14s6.286 14 14 14 14-6.286 14-14-6.286-14-14-14zm6 21.25c-0.32 0-0.64-0.122-0.884-0.366l-6-6c-0.234-0.235-0.366-0.552-0.366-0.884v-9c0-0.69 0.56-1.25 1.25-1.25s1.25 0.56 1.25 1.25v8.482l5.634 5.634c0.488 0.488 0.488 1.279 0 1.768-0.244 0.244-0.564 0.366-0.884 0.366z" fill="#fff"/>
</g>
<g id="Grid" display="none">
</g>
</svg>
