<?xml version="1.0" encoding="UTF-8" standalone="no"?>
<!-- Generator: Adobe Illustrator 17.0.2, SVG Export Plug-In . SVG Version: 6.00 Build 0)  -->
<!DOCTYPE svg  PUBLIC '-//W3C//DTD SVG 1.1//EN'  'http://www.w3.org/Graphics/SVG/1.1/DTD/svg11.dtd'>
<svg id="Layer_1" xmlns="http://www.w3.org/2000/svg" xml:space="preserve" height="32px" viewBox="0 0 32 32" width="32px" version="1.1" y="0px" x="0px" xmlns:xlink="http://www.w3.org/1999/xlink" enable-background="new 0 0 32 32">
<g id="Comp">
	<path id="path875" d="m7.637 1c-2.77 0-5 2.23-5 5v20c0 2.77 2.23 5 5 5h20.833c0.462 0 1.089-0.449 0.833-0.833v-2.5h-1.667v1.667h-20.832c-1.385 0-2.5-1.115-2.5-2.5s1.115-2.5 2.5-2.5h20.833c0.923 0 1.667-0.743 1.667-1.667v-20c0-0.924-0.744-1.667-1.667-1.667h-20zm3.229 4.219h2.083c0.411 0.87 0.81 1.711 1.198 2.604s0.758 1.878 1.146 2.865c0.4 0.987 0.839 2.02 1.25 3.125 0.423 1.105 0.844 2.289 1.302 3.594h-2.396c-0.165-0.482-0.345-0.936-0.521-1.406s-0.356-0.965-0.521-1.458h-5.103c-0.165 0.492-0.345 0.975-0.521 1.457l-0.521 1.406h-2.292c0.458-1.304 0.891-2.489 1.302-3.594s0.81-2.138 1.198-3.125c0.4-0.987 0.81-1.971 1.198-2.864s0.787-1.735 1.198-2.604zm0.99 2.343c-0.27 0.623-0.585 1.399-0.938 2.292-0.341 0.893-0.718 1.819-1.094 2.865h4.062c-0.376-1.046-0.741-2.012-1.094-2.917-0.351-0.905-0.678-1.64-0.936-2.24zm9.635 0.417c0.279-0.014 0.592 0 0.885 0 0.705 0 1.289 0.084 1.771 0.26s0.864 0.412 1.146 0.729c0.294 0.317 0.507 0.688 0.625 1.146 0.129 0.447 0.156 0.97 0.156 1.51v5.573c-0.329 0.07-0.789 0.166-1.458 0.26-0.658 0.106-1.405 0.156-2.24 0.156-0.552 0-1.104-0.051-1.562-0.156-0.458-0.106-0.817-0.286-1.146-0.521-0.317-0.235-0.593-0.561-0.781-0.938-0.176-0.376-0.26-0.802-0.26-1.354 0-0.529 0.113-0.99 0.312-1.354 0.212-0.364 0.481-0.662 0.833-0.885 0.353-0.235 0.792-0.375 1.25-0.469 0.47-0.106 0.953-0.156 1.458-0.156 0.235 0 0.471 0.017 0.729 0.052 0.259 0.023 0.54 0.033 0.833 0.104v-0.312c0-0.247-0.045-0.506-0.104-0.729s-0.16-0.408-0.312-0.573c-0.14-0.175-0.326-0.322-0.572-0.416-0.235-0.094-0.521-0.156-0.885-0.156-0.494 0-0.995 0.034-1.406 0.104s-0.731 0.166-0.99 0.26l-0.26-1.719c0.27-0.094 0.681-0.219 1.198-0.312 0.257-0.047 0.502-0.09 0.78-0.104zm1.302 5.313c-0.235 0-0.482 0.017-0.729 0.052-0.235 0.036-0.477 0.115-0.677 0.208-0.188 0.094-0.299 0.241-0.417 0.417-0.118 0.164-0.208 0.366-0.208 0.625 0 0.505 0.151 0.842 0.469 1.042 0.317 0.187 0.762 0.26 1.302 0.26 0.658 0 1.17-0.034 1.51-0.104v-2.344c-0.118-0.036-0.298-0.07-0.521-0.104-0.223-0.036-0.458-0.052-0.729-0.052z" fill="#fff"/>
</g>
<g id="Grid" display="none">
</g>
</svg>
