<?xml version="1.0" encoding="UTF-8" standalone="no"?>
<!-- Generator: Adobe Illustrator 17.0.2, SVG Export Plug-In . SVG Version: 6.00 Build 0)  -->
<!DOCTYPE svg  PUBLIC '-//W3C//DTD SVG 1.1//EN'  'http://www.w3.org/Graphics/SVG/1.1/DTD/svg11.dtd'>
<svg id="Layer_1" xmlns="http://www.w3.org/2000/svg" xml:space="preserve" height="32px" viewBox="0 0 32 32" width="32px" version="1.1" y="0px" x="0px" xmlns:xlink="http://www.w3.org/1999/xlink" enable-background="new 0 0 32 32">
<g id="Comp" fill="#fff">
	<path id="path4101" d="m9.999 13.496c-5.362 0-5.974 0.029-6.001 3.501v4.501h24.005v-4.501c-0.027-3.472-0.639-3.501-6.001-3.501h-12.003zm-6.002 9.502v4.501c0.028 3.472 0.64 3.501 6.002 3.501h12.003c5.362 0 5.974-0.029 6.001-3.501v-4.501h-24.006z"/>
	<path id="rect4118" d="m16 1c-4.407 0-8.002 3.595-8.002 8.002v4.501c0 4.407 3.595 8.002 8.002 8.002s8.002-3.595 8.002-8.002v-4.501c0-4.407-3.595-8.002-8.002-8.002zm0 3.001c2.797 0 5.001 2.205 5.001 5.001v4.501c0 2.797-2.205 5.001-5.001 5.001s-5.001-2.205-5.001-5.001v-4.501c0-2.797 2.204-5.001 5.001-5.001z"/>
</g>
<g id="Grid" display="none">
</g>
</svg>
