<?xml version="1.0" encoding="UTF-8" standalone="no"?>
<!-- Generator: Adobe Illustrator 17.0.2, SVG Export Plug-In . SVG Version: 6.00 Build 0)  -->
<!DOCTYPE svg  PUBLIC '-//W3C//DTD SVG 1.1//EN'  'http://www.w3.org/Graphics/SVG/1.1/DTD/svg11.dtd'>
<svg id="Layer_1" xmlns="http://www.w3.org/2000/svg" xml:space="preserve" height="32px" viewBox="0 0 32 32" width="32px" version="1.1" y="0px" x="0px" xmlns:xlink="http://www.w3.org/1999/xlink" enable-background="new 0 0 32 32">
<g id="Comp" fill="#fff">
	<path id="path3809_2_" d="m16 6.4c-5.289 0-9.6 4.311-9.6 9.6 0 4.169 2.675 7.723 6.4 9.044v-2.3c-2.525-1.194-4.267-3.755-4.267-6.744 0-4.136 3.33-7.467 7.467-7.467s7.467 3.33 7.467 7.467c0 2.989-1.741 5.55-4.267 6.744v2.3c3.725-1.321 6.4-4.875 6.4-9.044 0-5.289-4.311-9.6-9.6-9.6z"/>
	<path id="path3827_2_" d="m14.933 0.005v4.267h2.133v-4.267h-2.133zm-6.011 1.611l-1.844 1.066 2.133 3.689 1.844-1.067-2.133-3.688zm14.156 0l-2.133 3.689 1.844 1.067 2.133-3.689-1.844-1.067zm-20.4 5.455l-1.067 1.856 3.689 2.133 1.067-1.856-3.689-2.133zm26.644 0l-3.689 2.133 1.067 1.856 3.689-2.133-1.067-1.856zm-29.322 7.867v2.133h4.267v-2.133h-4.267zm27.733 0v2.133h4.267v-2.133h-4.267zm-22.433 6l-3.689 2.133 1.067 1.856 3.689-2.133-1.067-1.856zm21.4 0l-1.067 1.856 3.689 2.133 1.067-1.856-3.689-2.133z"/>
	<path id="rect3829_2_" d="m10.667 21.222v4.378c0 0.593 0.038 1.097 0.211 1.589s0.552 0.961 1.011 1.211c0.918 0.501 1.8 0.4 3.044 0.4h2.133c1.244 0 2.126 0.101 3.044-0.4 0.459-0.25 0.838-0.719 1.011-1.211s0.211-0.996 0.211-1.589v-4.378c-0.611 0.624-1.335 1.131-2.133 1.511v2.867c0 0.474-0.051 0.769-0.089 0.878-0.016 0.045-0.013 0.053-0.011 0.056 0 0-0.004-0.004-0.011 0-0.059 0.032-0.778 0.133-2.022 0.133h-2.133c-1.244 0-1.963-0.101-2.022-0.133-0.007-0.004-0.011-0.002-0.011-0.002s0.004-0.008-0.012-0.053c-0.037-0.11-0.088-0.405-0.088-0.879v-2.867c-0.798-0.379-1.522-0.887-2.133-1.511z"/>
	<path id="path3851-2_2_" d="m16.533 22.4l-3.413-7.467h2.591l-0.245-5.333 3.414 7.467h-2.627l0.28 5.333z"/>
	<path id="rect3843_2_" d="m12.822 29.789c0.07 0.846 0.502 1.144 2.111 1.144h2.133c1.609 0 2.041-0.298 2.111-1.144-0.705 0.106-1.399 0.067-2.111 0.067h-2.133c-0.712 0-1.406 0.039-2.111-0.067z"/>
</g>
<g id="Grid" display="none">
</g>
</svg>
