<?xml version="1.0" encoding="UTF-8" standalone="no"?>
<!-- Generator: Adobe Illustrator 17.0.2, SVG Export Plug-In . SVG Version: 6.00 Build 0)  -->
<!DOCTYPE svg  PUBLIC '-//W3C//DTD SVG 1.1//EN'  'http://www.w3.org/Graphics/SVG/1.1/DTD/svg11.dtd'>
<svg id="Layer_1" xmlns="http://www.w3.org/2000/svg" xml:space="preserve" height="32px" viewBox="0 0 32 32" width="32px" version="1.1" y="0px" x="0px" xmlns:xlink="http://www.w3.org/1999/xlink" enable-background="new 0 0 32 32">
<g id="Comp">
	<path id="path3008_5_" d="m15.979 2c-0.48 0.001-5.144 7.561-5.531 7.844-0.388 0.282-8.998 2.408-9.146 2.864-0.147 0.457 5.591 7.222 5.74 7.678s-0.482 9.312-0.094 9.594c0.388 0.281 8.593-3.093 9.073-3.094 0.479-0.001 8.706 3.345 9.094 3.062s-0.282-9.138-0.135-9.594c0.147-0.457 5.868-7.242 5.719-7.698s-8.768-2.552-9.156-2.833c-0.39-0.281-5.084-7.824-5.564-7.823z" fill="#fff"/>
</g>
<g id="Grid" display="none">
</g>
</svg>
