<?xml version="1.0" encoding="UTF-8" standalone="no"?>
<!-- Generator: Adobe Illustrator 17.0.2, SVG Export Plug-In . SVG Version: 6.00 Build 0)  -->
<!DOCTYPE svg  PUBLIC '-//W3C//DTD SVG 1.1//EN'  'http://www.w3.org/Graphics/SVG/1.1/DTD/svg11.dtd'>
<svg id="Layer_1" xmlns="http://www.w3.org/2000/svg" xml:space="preserve" height="32px" viewBox="0 0 32 32" width="32px" version="1.1" y="0px" x="0px" xmlns:xlink="http://www.w3.org/1999/xlink" enable-background="new 0 0 32 32">
<g id="Comp">
	<path fill="#fff" clip-rule="evenodd" d="m25.999 28.001c0 2.209-1.788 3.999-3.999 3.999h-11.998c-2.212 0-4.001-1.79-4.001-3.999v-24.002c0-2.207 1.79-3.999 4.001-3.999h11.998c2.211 0 3.999 1.792 3.999 3.999v24.002zm-12.001-4c0 1.104-0.894 1.999-2 1.999-1.103 0-1.997-0.894-1.997-1.999 0-1.104 0.894-2.001 1.997-2.001 1.106 0 2 0.897 2 2.001zm8.002-11.501c0 0.825-0.675 1.5-1.5 1.5h-9c-0.825 0-1.5-0.675-1.5-1.5s0.675-1.5 1.5-1.5h9c0.825 0 1.5 0.675 1.5 1.5zm0-4c0 0.825-0.675 1.5-1.5 1.5h-9c-0.825 0-1.5-0.675-1.5-1.5s0.675-1.5 1.5-1.5h9c0.825 0 1.5 0.675 1.5 1.5zm0-4c0 0.825-0.675 1.5-1.5 1.5h-9c-0.825 0-1.5-0.675-1.5-1.5s0.675-1.5 1.5-1.5h9c0.825 0 1.5 0.675 1.5 1.5z" fill-rule="evenodd"/>
</g>
<g id="Grid" display="none">
</g>
</svg>
