<?xml version="1.0" encoding="UTF-8" standalone="no"?>
<!-- Generator: Adobe Illustrator 17.0.2, SVG Export Plug-In . SVG Version: 6.00 Build 0)  -->
<!DOCTYPE svg  PUBLIC '-//W3C//DTD SVG 1.1//EN'  'http://www.w3.org/Graphics/SVG/1.1/DTD/svg11.dtd'>
<svg id="Layer_1" xmlns="http://www.w3.org/2000/svg" xml:space="preserve" height="32px" viewBox="0 0 32 32" width="32px" version="1.1" y="0px" x="0px" xmlns:xlink="http://www.w3.org/1999/xlink" enable-background="new 0 0 32 32">
<g id="Comp">
	<path d="m31 16c0 8.284-6.716 15-14.999 15-8.286 0-15.001-6.716-15.001-15s6.715-15 15.001-15c8.284 0 14.999 6.716 14.999 15zm-25.199-2.003c-1.106 0-2.004 0.897-2.004 2.003s0.897 2.002 2.004 2.002c1.106 0 2.002-0.896 2.002-2.002s-0.896-2.003-2.002-2.003zm14.298 9.102c-0.958 0.553-1.286 1.777-0.733 2.735s1.777 1.286 2.735 0.733 1.286-1.777 0.733-2.735c-0.552-0.957-1.778-1.285-2.735-0.733zm-9.948-7.099c0-1.979 0.983-3.728 2.488-4.787l-1.465-2.452c-1.752 1.171-3.056 2.961-3.598 5.057 0.632 0.517 1.037 1.302 1.037 2.182s-0.405 1.665-1.037 2.181c0.541 2.097 1.845 3.887 3.598 5.058l1.465-2.453c-1.506-1.058-2.488-2.807-2.488-4.786zm5.85-5.85c3.055 0 5.563 2.343 5.826 5.331l2.854-0.042c-0.141-2.206-1.104-4.187-2.585-5.643-0.761 0.288-1.641 0.244-2.401-0.194-0.762-0.44-1.239-1.181-1.369-1.986-0.742-0.204-1.521-0.316-2.326-0.316-1.384 0-2.693 0.325-3.855 0.901l1.392 2.493c0.748-0.348 1.583-0.544 2.464-0.544zm0 11.7c-0.881 0-1.716-0.196-2.464-0.544l-1.392 2.493c1.162 0.576 2.471 0.901 3.856 0.901 0.805 0 1.584-0.112 2.324-0.317 0.131-0.805 0.608-1.545 1.369-1.986 0.761-0.439 1.64-0.482 2.401-0.195 1.481-1.456 2.445-3.437 2.585-5.643l-2.854-0.042c-0.263 2.99-2.77 5.333-5.825 5.333zm4.097-12.95c0.958 0.553 2.182 0.226 2.735-0.732s0.225-2.182-0.733-2.736c-0.957-0.553-2.182-0.224-2.735 0.734-0.552 0.957-0.224 2.181 0.733 2.734z" fill="#fff"/>
</g>
<g id="Grid" display="none">
</g>
</svg>
