<?xml version="1.0" encoding="UTF-8" standalone="no"?>
<!-- Generator: Adobe Illustrator 17.0.2, SVG Export Plug-In . SVG Version: 6.00 Build 0)  -->
<!DOCTYPE svg  PUBLIC '-//W3C//DTD SVG 1.1//EN'  'http://www.w3.org/Graphics/SVG/1.1/DTD/svg11.dtd'>
<svg id="Layer_1" xmlns="http://www.w3.org/2000/svg" xml:space="preserve" height="32px" viewBox="0 0 32 32" width="32px" version="1.1" y="0px" x="0px" xmlns:xlink="http://www.w3.org/1999/xlink" enable-background="new 0 0 32 32">
<g id="Comp" fill="#fff">
	<path id="path4984" d="m12.797 12.746c-0.191 0.764-12.152 3.754-12.725 3.182-0.572-0.573 2.418-12.534 3.182-12.725 0.763-0.191 9.734 8.78 9.543 9.543z"/>
	<path id="path2992" d="m16.103 2.17c-4.443 0.317-8.661 2.765-11.048 6.9l2.772 1.592c2.955-5.118 9.458-6.857 14.576-3.902s6.857 9.458 3.902 14.576-9.458 6.857-14.576 3.902c-0.807-0.466-1.543-1.041-2.202-1.7l-2.271 2.271c0.857 0.857 1.83 1.596 2.88 2.202 6.616 3.82 15.121 1.534 18.941-5.082s1.534-15.121-5.082-18.941c-2.48-1.432-5.226-2.008-7.892-1.818z"/>
</g>
<g id="Grid" display="none">
</g>
</svg>
