<?xml version="1.0" encoding="UTF-8" standalone="no"?>
<!-- Generator: Adobe Illustrator 17.0.2, SVG Export Plug-In . SVG Version: 6.00 Build 0)  -->
<!DOCTYPE svg  PUBLIC '-//W3C//DTD SVG 1.1//EN'  'http://www.w3.org/Graphics/SVG/1.1/DTD/svg11.dtd'>
<svg id="Layer_1" xmlns="http://www.w3.org/2000/svg" xml:space="preserve" height="32px" viewBox="0 0 32 32" width="32px" version="1.1" y="0px" x="0px" xmlns:xlink="http://www.w3.org/1999/xlink" enable-background="new 0 0 32 32">
<g id="Comp" fill="#fff">
	<path id="rect3461-3-1" d="m7.18 15.946c-4.894 0.236-6.18 1.799-6.18 5.279v5.465c0 2.277-0.002 2.282 3.035 2.282h13.668c3.036 0 3.035-0.005 3.035-2.282v-5.465c0-3.48-1.286-5.044-6.18-5.28-0.273 0.322-0.552 0.631-0.851 0.901-0.755 0.68-1.674 1.283-2.837 1.283s-2.083-0.602-2.837-1.283c-0.3-0.269-0.58-0.579-0.853-0.9z"/>
	<path id="path3447-0-6" d="m10.869 2.13c-3.795 0-5.314 1.518-5.314 5.314v0.759c0 3.036 3.045 8.35 5.318 8.35s5.309-5.314 5.309-8.35v-0.759c0-3.796-1.518-5.314-5.313-5.314z"/>
	<path id="rect3461-3-1-2" d="m26.152 17.623c-0.177 0.208-0.357 0.408-0.555 0.592-0.633 0.589-1.41 1.123-2.492 1.123-0.323 0-0.617-0.053-0.888-0.136 0.046 0.406 0.074 0.826 0.074 1.246v6.155h6.279c2.429 0 2.43-0.004 2.43-1.863v-2.812c0-2.818-1.014-4.095-4.848-4.305z"/>
	<path id="path3447-0-6-8" d="m23.103 6.077c-2.985 0-4.178 1.23-4.178 4.305v0.615c0 2.46 2.395 6.765 4.182 6.765s4.175-4.305 4.175-6.765v-0.615c0-3.075-1.194-4.305-4.179-4.305z"/>
</g>
<g id="Grid" display="none">
</g>
</svg>
