<?xml version="1.0" encoding="UTF-8" standalone="no"?>
<!-- Generator: Adobe Illustrator 17.0.2, SVG Export Plug-In . SVG Version: 6.00 Build 0)  -->
<!DOCTYPE svg  PUBLIC '-//W3C//DTD SVG 1.1//EN'  'http://www.w3.org/Graphics/SVG/1.1/DTD/svg11.dtd'>
<svg id="Layer_1" xmlns="http://www.w3.org/2000/svg" xml:space="preserve" height="32px" viewBox="0 0 32 32" width="32px" version="1.1" y="0px" x="0px" xmlns:xlink="http://www.w3.org/1999/xlink" enable-background="new 0 0 32 32">
<g id="Comp">
	<path d="m16 25.551c-5.275 0-9.551-4.275-9.551-9.551 0-5.275 4.276-9.551 9.551-9.551s9.551 4.276 9.551 9.551c0.001 5.276-4.275 9.551-9.551 9.551zm15-9.551c0 8.284-6.716 15-15 15-8.285 0-15-6.716-15-15s6.715-15 15-15c8.284 0 15 6.716 15 15zm-15-11.351c-6.269 0-11.351 5.082-11.351 11.351 0 6.27 5.081 11.351 11.351 11.351s11.351-5.081 11.351-11.351c0-6.269-5.081-11.351-11.351-11.351z" fill="#fff"/>
</g>
<g id="Grid" display="none">
</g>
</svg>
