<?xml version="1.0" encoding="UTF-8" standalone="no"?>
<!-- Generator: Adobe Illustrator 17.0.2, SVG Export Plug-In . SVG Version: 6.00 Build 0)  -->
<!DOCTYPE svg  PUBLIC '-//W3C//DTD SVG 1.1//EN'  'http://www.w3.org/Graphics/SVG/1.1/DTD/svg11.dtd'>
<svg xmlns="http://www.w3.org/2000/svg" xml:space="preserve" height="195px" width="195px" version="1.1" y="0px" x="0px" xmlns:xlink="http://www.w3.org/1999/xlink" viewBox="0 0 195 195" enable-background="new 0 0 195 195">
<g id="Comp">
	<path d="m97.503 195c-26.043 0-50.528-10.143-68.942-28.559-18.418-18.42-28.561-42.9-28.561-68.939 0-26.043 10.143-50.526 28.561-68.943 18.415-18.416 42.899-28.558 68.942-28.558s50.526 10.142 68.942 28.557c18.42 18.416 28.56 42.899 28.56 68.944 0 26.043-10.142 50.526-28.557 68.94-18.41 18.41-42.89 28.56-68.937 28.56zm0-170.63c-19.532 0-37.896 7.607-51.708 21.418-13.814 13.814-21.422 32.176-21.422 51.708 0 19.53 7.608 37.892 21.422 51.704 13.812 13.813 32.176 21.418 51.708 21.418s37.894-7.605 51.706-21.417c13.813-13.812 21.418-32.174 21.418-51.706 0-19.534-7.605-37.898-21.418-51.708-13.81-13.806-32.18-21.413-51.707-21.413zm43.117 39.005c-5.462-5.46-12.723-8.468-20.448-8.468-7.727 0-14.99 3.01-20.454 8.472-0.817 0.817-1.577 1.675-2.282 2.573-0.703-0.896-1.464-1.756-2.28-2.571-5.462-5.464-12.727-8.472-20.452-8.472s-14.988 3.008-20.452 8.47c-11.275 11.277-11.275 29.627-0.021 40.881l38.816 39.201c1.144 1.154 2.7 1.804 4.325 1.804h0.005c1.623 0 3.182-0.647 4.324-1.799l38.916-39.186c11.28-11.265 11.28-29.615 0-40.892z" fill="#DD4814"/>
</g>
<g id="Grid" display="none">
</g>
</svg>
