<?xml version="1.0" encoding="UTF-8" standalone="no"?>
<!-- Generator: Adobe Illustrator 17.0.2, SVG Export Plug-In . SVG Version: 6.00 Build 0)  -->
<!DOCTYPE svg  PUBLIC '-//W3C//DTD SVG 1.1//EN'  'http://www.w3.org/Graphics/SVG/1.1/DTD/svg11.dtd'>
<svg xmlns="http://www.w3.org/2000/svg" xml:space="preserve" height="110px" width="110px" version="1.1" y="0px" x="0px" xmlns:xlink="http://www.w3.org/1999/xlink" viewBox="0 0 110 110" enable-background="new 0 0 110 110">
<g id="Comp">
	<path d="m84.525 101.43c-8.735 5.57-18.88 8.57-29.49 8.57-10.629 0-20.789-3.009-29.534-8.598 1.255-1.273 1.987-3.004 1.987-4.838v-14.179h-3.484c-1.902 0-3.445-1.543-3.445-3.445s1.543-3.445 3.445-3.445h3.484v-13.788h17.226c3.692 0 6.706-2.904 6.882-6.553 0.007-0.117 0.01-0.236 0.01-0.352 0-19.541-10.227-36.726-25.601-46.519 8.63-5.386 18.605-8.281 29.03-8.281 10.411 0 20.373 2.887 28.995 8.259-15.391 9.789-25.633 26.986-25.633 46.54 0 0.115 0.003 0.233 0.01 0.35 0.175 3.65 3.189 6.555 6.882 6.555h17.227v13.788h3.484c1.902 0 3.445 1.543 3.445 3.445s-1.543 3.445-3.445 3.445h-3.484v14.181c-0.002 1.848 0.738 3.587 2.009 4.867zm11.805-63.887c0-1.902-1.541-3.447-3.444-3.447-1.902 0-3.446 1.544-3.446 3.447s1.544 3.443 3.446 3.443c1.904 0 3.444-1.541 3.444-3.443zm-79.216-3.446c-1.902 0-3.444 1.544-3.444 3.447s1.542 3.443 3.444 3.443 3.447-1.541 3.447-3.443-1.545-3.447-3.447-3.447z" fill="#DD4814"/>
</g>
<g id="Grid" display="none">
</g>
</svg>
