<?xml version="1.0" encoding="UTF-8" standalone="no"?>
<!-- Generator: Adobe Illustrator 17.0.2, SVG Export Plug-In . SVG Version: 6.00 Build 0)  -->
<!DOCTYPE svg  PUBLIC '-//W3C//DTD SVG 1.1//EN'  'http://www.w3.org/Graphics/SVG/1.1/DTD/svg11.dtd'>
<svg xmlns="http://www.w3.org/2000/svg" xml:space="preserve" height="110px" width="110px" version="1.1" y="0px" x="0px" xmlns:xlink="http://www.w3.org/1999/xlink" viewBox="0 0 110 110" enable-background="new 0 0 110 110">
<g id="Comp">
	<g fill="#DD4814">
		<path d="m70.943 78.114c-21.536 0-39.056-17.522-39.056-39.057-0.001-21.537 17.52-39.057 39.056-39.057s39.057 17.521 39.057 39.057c0 21.535-17.522 39.057-39.057 39.057"/>
		<path d="m27.093 41.868c0.895 14.096 8.465 26.409 19.578 33.8l0.001-0.003-27.142 15.672 7.154-26.688-26.684-7.136 27.097-15.645h-0.004z"/>
		<path d="m51.409 78.411c5.888 2.933 12.521 4.586 19.534 4.586 7.008 0 13.641-1.651 19.526-4.582l-0.001-0.003v31.439l-19.535-19.54-19.522 19.539v-31.442l-0.002 0.003z"/>
	</g>
</g>
<g id="Grid" display="none">
</g>
</svg>
