<?xml version="1.0" encoding="UTF-8" standalone="no"?>
<!-- Generator: Adobe Illustrator 17.0.2, SVG Export Plug-In . SVG Version: 6.00 Build 0)  -->
<!DOCTYPE svg  PUBLIC '-//W3C//DTD SVG 1.1//EN'  'http://www.w3.org/Graphics/SVG/1.1/DTD/svg11.dtd'>
<svg xmlns="http://www.w3.org/2000/svg" xml:space="preserve" height="110px" width="110px" version="1.1" y="0px" x="0px" xmlns:xlink="http://www.w3.org/1999/xlink" viewBox="0 0 110 110" enable-background="new 0 0 110 110">
<g id="Comp">
	<g fill="#DD4814">
		<path d="m40.984 37.83c0 1.898-1.539 3.438-3.439 3.438-1.897 0-3.435-1.541-3.435-3.438 0-1.9 1.539-3.437 3.435-3.437 1.9-0.001 3.439 1.538 3.439 3.437"/>
		<path d="m51.309 0c-6.513 0-12.765 1.141-18.57 3.231 21.9 7.255 37.745 27.924 37.745 52.227 0 0.129-0.005 0.259-0.012 0.391-0.195 3.622-3.196 6.499-6.865 6.499h-17.19v13.347h-1.997c-1.9 0-3.438 1.539-3.438 3.438 0 1.898 1.539 3.438 3.438 3.438h1.998v14.56c0 2.452-1.307 4.721-3.431 5.951-2.855 1.652-5.851 3.032-8.941 4.138 5.434 1.8 11.239 2.78 17.263 2.78 30.329 0 55.004-24.673 55.004-54.999 0-30.328-24.671-55.001-55.001-55.001zm6.9 82.559c-1.901 0-3.436-1.539-3.436-3.436 0-1.9 1.535-3.438 3.436-3.438 1.897 0 3.437 1.539 3.437 3.438 0 1.897-1.541 3.436-3.437 3.436zm13.731 0c-1.9 0-3.436-1.539-3.436-3.436 0-1.9 1.537-3.438 3.436-3.438s3.438 1.539 3.438 3.438c0 1.897-1.538 3.436-3.438 3.436zm13.83 0c-1.899 0-3.436-1.539-3.436-3.436 0-1.9 1.538-3.438 3.436-3.438 1.9 0 3.438 1.539 3.438 3.438 0 1.897-1.538 3.436-3.438 3.436z"/>
		<path d="m37.555 27.513c5.687 0 10.313 4.627 10.313 10.312s-4.626 10.312-10.313 10.312c-5.685 0-10.313-4.626-10.313-10.312s4.628-10.312 10.313-10.312m-17.188 10.313c0 9.476 7.711 17.186 17.188 17.186s17.19-7.71 17.19-17.186c0-9.477-7.712-17.188-17.186-17.188h-29.157c-1.738 2.164-3.316 4.463-4.715 6.875h20.126c-2.161 2.874-3.446 6.446-3.446 10.313"/>
	</g>
</g>
<g id="Grid" display="none">
</g>
</svg>
