<?xml version="1.0" encoding="UTF-8" standalone="no"?>
<!-- Generator: Adobe Illustrator 17.0.2, SVG Export Plug-In . SVG Version: 6.00 Build 0)  -->
<!DOCTYPE svg  PUBLIC '-//W3C//DTD SVG 1.1//EN'  'http://www.w3.org/Graphics/SVG/1.1/DTD/svg11.dtd'>
<svg xmlns="http://www.w3.org/2000/svg" xml:space="preserve" height="110px" width="110px" version="1.1" y="0px" x="0px" xmlns:xlink="http://www.w3.org/1999/xlink" viewBox="0 0 110 110" enable-background="new 0 0 110 110">
<g id="Comp">
		<path id="path2995" d="m85.465 46.812c0 21.435-17.341 38.812-38.733 38.812s-38.732-17.376-38.732-38.812c0-21.435 17.341-38.812 38.733-38.812s38.732 17.377 38.732 38.812z" stroke="#DD4814" stroke-width="14.284" fill="none"/>
	<path id="path3765" d="m78.193 72.491l-5.782 5.782 16.325 16.325 5.782-5.782-16.325-16.325z" fill="#DD4814"/>
	<path id="path3767" d="m86.081 78.162c-3.16 0.016-6.214 2.088-7.398 5.02-1.185 2.932-0.428 6.545 1.832 8.755l11.959 11.972c5.475 5.815 6.656 5.03 11.515 0.171s5.652-5.699-0.171-11.522l-11.961-11.972c-1.498-1.537-3.632-2.432-5.778-2.424z" fill="#DD4814"/>
</g>
<g id="Grid" display="none">
</g>
</svg>
